<?xml version="1.0" encoding="utf-8"?>
<!-- Generator: Adobe Illustrator 22.1.0, SVG Export Plug-In . SVG Version: 6.00 Build 0)  -->
<svg version="1.1" id="Calque_1" xmlns="http://www.w3.org/2000/svg" xmlns:xlink="http://www.w3.org/1999/xlink" x="0px" y="0px"
	 viewBox="0 0 49.7 49.7" style="enable-background:new 0 0 49.7 49.7;" xml:space="preserve">
<path d="M24.8,0C11.1,0,0,11.1,0,24.8s11.1,24.8,24.8,24.8s24.8-11.1,24.8-24.8S38.5,0,24.8,0z M17.6,37.5h-6V19.3h6V37.5z
	 M14.6,16.9L14.6,16.9c-2.1,0-3.4-1.4-3.4-3.1c0-1.8,1.4-3.1,3.4-3.1s3.3,1.4,3.4,3.1C18,15.5,16.7,16.9,14.6,16.9z M39.4,37.5h-6
	v-9.7c0-2.4-0.9-4.1-3.1-4.1c-1.7,0-2.7,1.1-3.1,2.2C27,26.3,27,26.8,27,27.4v10.2h-6c0,0,0.1-16.5,0-18.2h6v2.6
	c0.8-1.2,2.2-3,5.4-3c4,0,7,2.6,7,8.2V37.5z"/>
</svg>
