<?xml version="1.0" encoding="utf-8"?>
<!-- Generator: Adobe Illustrator 22.1.0, SVG Export Plug-In . SVG Version: 6.00 Build 0)  -->
<svg version="1.1" id="Calque_1" xmlns="http://www.w3.org/2000/svg" xmlns:xlink="http://www.w3.org/1999/xlink" x="0px" y="0px"
	 viewBox="0 0 425.2 163" style="enable-background:new 0 0 425.2 163;" xml:space="preserve">
<style type="text/css">
	.st0{fill:#1D1D1B;}
</style>
<g>
	<path class="st0" d="M191.2,45.5c1.3,6.9,5.5,10.5,12.6,10.5c9.8,0,15.8-3.8,15.8-3.8s2.3,2.3,2.3,5.3c0,5.3-3.8,10.5-18.8,10.5
		c-13.6,0-25.6-9-25.6-27.1c0-15,8.9-27.1,23.8-27.1s25.2,11.3,20.7,31.6H191.2z M209.1,35.8c1.6-5.3-1.8-10.5-7.9-10.5
		c-5.5,0-8.8,4-9.9,10.5H209.1z"/>
	<path class="st0" d="M261.8,0v14.8c-2.7-0.5-5.5-0.9-8.3-0.9c-16.7,0-26.4,12.2-26.4,27.1s9,26.4,26.2,26.4h22.1V0H261.8z
		 M261.8,54.6h-8.5c-7.3,0-12.6-5.3-12.6-13.6s5.3-13.6,12.8-13.6c5.3,0,8.3,1.5,8.3,1.5V54.6z"/>
	<path class="st0" d="M346.6,67.4V29l-17.3,4v34.4h-13.6V29l-17.3,4v34.4h-13.6V14.7h13.6v6.9c4.5-2.5,15.5-7.6,30.9-7.6v7.6
		c4.5-2.6,15.5-7.6,30.9-7.6v53.5H346.6z"/>
	<path class="st0" d="M368.4,0c0,4.4,3.6,7.9,8,7.9c4.3,0,7.8-3.5,7.9-7.9H368.4z M369.5,14.7v52.7h13.6V14.7H369.5z"/>
	<g>
		<path class="st0" d="M199.3,106.9c-4.5,0-8.3,0-8.3,3.8c0,6,25,5.3,25,22.6c0,9.8-9,15.8-20.3,15.8c-12.2,0-18.2-4.5-18.2-10.5
			c0-3,1.8-4.9,2.3-5.3c0,0,5.3,3.8,15.1,3.8c4.5,0,7.5-0.8,7.5-3.8c0-7.5-24.8-5.3-24.8-22.6c0-9,10.5-15.8,21.1-15.8
			c8.8,0,15.1,1.5,15.1,1.5v12.8L199.3,106.9z"/>
		<path class="st0" d="M236.4,107.7v21.9c0,4.4,2.3,6.7,6.7,6.7c8.3,0,11.5-3,11.5-3c0.5,0.3,2.8,2.3,2.8,6c0,5.3-5.2,9.8-15.7,9.8
			c-12,0-18.8-8.3-18.8-19.6v-21.8h-5.3v-3.8l15.1-23h3.8v14.7h18.1v12H236.4z"/>
		<path class="st0" d="M289.6,95.6h13.6v36.9c0,3,1.5,4.5,3.8,4.5c2.3,0,4.5-1.5,4.5-1.5s1.5,1.5,1.5,5.3c0,4.5-4.6,8.3-12,8.3
			c-6.9,0-9.7-4-10.8-8c-5.4,3.3-15.3,8-28.4,8V95.6h13.6V134l14.3-3.9V95.6z"/>
		<path class="st0" d="M346.6,80.9v14.8c-2.7-0.5-5.5-0.9-8.3-0.9c-16.7,0-26.4,12.2-26.4,27.1c0,14.9,9,26.4,26.2,26.4h22.1V80.9
			H346.6z M346.6,135.5h-8.5c-7.3,0-12.6-5.3-12.6-13.6s5.3-13.6,12.8-13.6c5.3,0,8.3,1.5,8.3,1.5V135.5z"/>
		<path class="st0" d="M369.5,95.6v52.7H383V95.6H369.5z M368.4,80.9c0,4.4,3.6,7.9,8,7.9c4.3,0,7.8-3.5,7.8-7.9H368.4z"/>
	</g>
	<g>
		<path class="st0" d="M65.2,83.3c-5.1,4.3-8.9,8.8-8.9,14.5c0,8.7,6.8,14.5,16.1,14.5c5.1,0,10.2-2.1,14.9-5.5
			C79,99.8,71.3,91.7,65.2,83.3z"/>
		<path class="st0" d="M82.5,0.1C37.5,0.1,1,36.6,1,81.6c0,45,36.5,81.5,81.5,81.5c45,0,81.5-36.5,81.5-81.5
			C163.9,36.6,127.4,0.1,82.5,0.1z M121.1,124.9c-9.9,0-15-4.9-22.6-10c-7.5,6.2-16.7,10-28,10c-18.6,0-29.7-11.5-29.7-26.2
			c0-12.8,8.3-20.4,17.7-26.5l11.5-7.1c7.7-4.8,13.8-9.6,13.8-16.8c0-4.9-2.2-8.7-7.6-8.7c-5.8,0-9.9,4.8-9.9,11.9
			c0,2.5,0.5,5.2,1.4,7.9H53.5c0,0-1-5.3-1-7.8c0-12.8,9.2-23.2,23.4-23.2c12.8,0,20.6,8,20.6,19.7c0,12.3-10.2,20-20.3,27.1
			C82,83,89.6,90.5,97.4,96.6c5.2-6.8,9.3-15.1,11.9-24.8h15c-3.5,11.7-8.7,22.6-15.9,32.4c6,3.7,11.8,7.4,16.8,7.4c5,0,8.6-3,8.6-3
			c0.6,0.4,2.9,2.3,2.9,6.2C136.7,120.2,131,124.9,121.1,124.9z"/>
	</g>
	<path class="st0" d="M399.8,94.9c-2.8,0-5.6,0.3-8.3,0.9v14.2c0,0,3-1.5,8.3-1.5c7.5,0,12.8,5.3,12.8,13.6
		c0,8.3-5.3,13.6-12.6,13.6h-8.5v12.8h8.5c17.1,0,26.2-11.4,26.2-26.4C426.2,107,416.5,94.9,399.8,94.9z"/>
</g>
</svg>
